<?xml version="1.0" encoding="UTF-8" standalone="no"?>
<!DOCTYPE svg PUBLIC "-//W3C//DTD SVG 1.1//EN"
 "http://www.w3.org/Graphics/SVG/1.1/DTD/svg11.dtd">
<!-- Generated by graphviz version 2.40.1 (20161225.0304)
 -->
<!-- Title: dependencies Pages: 1 -->
<svg width="1115pt" height="284pt"
 viewBox="0.00 0.00 1115.00 284.00" xmlns="http://www.w3.org/2000/svg" xmlns:xlink="http://www.w3.org/1999/xlink">
<g id="graph0" class="graph" transform="scale(1 1) rotate(0) translate(4 280)">
<title>dependencies</title>
<polygon fill="#ffffff" stroke="transparent" points="-4,4 -4,-280 1111,-280 1111,4 -4,4"/>
<text text-anchor="start" x="532.5091" y="-42.4" font-family="sans-serif" font-weight="bold" font-size="14.00" fill="#000000">Legend</text>
<polygon fill="#ffffb3" stroke="transparent" points="319.5,-10 319.5,-30 339.5,-30 339.5,-10 319.5,-10"/>
<text text-anchor="start" x="343.129" y="-15.4" font-family="sans-serif" font-size="14.00" fill="#000000"> &#160;Declarations</text>
<polygon fill="#8dd3c7" stroke="transparent" points="432.5,-10 432.5,-30 452.5,-30 452.5,-10 432.5,-10"/>
<text text-anchor="start" x="456.2251" y="-15.4" font-family="sans-serif" font-size="14.00" fill="#000000"> &#160;Module</text>
<polygon fill="#80b1d3" stroke="transparent" points="518.5,-10 518.5,-30 538.5,-30 538.5,-10 518.5,-10"/>
<text text-anchor="start" x="542.2812" y="-15.4" font-family="sans-serif" font-size="14.00" fill="#000000"> &#160;Bootstrap</text>
<polygon fill="#fdb462" stroke="transparent" points="615.5,-10 615.5,-30 635.5,-30 635.5,-10 615.5,-10"/>
<text text-anchor="start" x="639.1732" y="-15.4" font-family="sans-serif" font-size="14.00" fill="#000000"> &#160;Providers</text>
<polygon fill="#fb8072" stroke="transparent" points="711.5,-10 711.5,-30 731.5,-30 731.5,-10 711.5,-10"/>
<text text-anchor="start" x="735.2258" y="-15.4" font-family="sans-serif" font-size="14.00" fill="#000000"> &#160;Exports</text>
<g id="clust1" class="cluster">
<title>cluster_ContactsModule</title>
<polygon fill="none" stroke="#000000" stroke-dasharray="1,5" points="8,-70 8,-268 1099,-268 1099,-70 8,-70"/>
</g>
<g id="clust2" class="cluster">
<title>cluster_ContactsModule_declarations</title>
<polygon fill="none" stroke="#000000" points="16,-78 16,-130 1091,-130 1091,-78 16,-78"/>
</g>
<g id="clust10" class="cluster">
<title>cluster_ContactsModule_exports</title>
<polygon fill="none" stroke="#000000" points="503,-208 503,-260 653,-260 653,-208 503,-208"/>
</g>
<!-- ContactsComponent -->
<g id="node1" class="node">
<title>ContactsComponent</title>
<polygon fill="#ffffb3" stroke="#000000" points="1083.3244,-122 952.6756,-122 952.6756,-86 1083.3244,-86 1083.3244,-122"/>
<text text-anchor="middle" x="1018" y="-99.8" font-family="Times,serif" font-size="14.00" fill="#000000">ContactsComponent</text>
</g>
<!-- ContactsModule -->
<g id="node7" class="node">
<title>ContactsModule</title>
<polygon fill="#8dd3c7" stroke="#000000" points="632.0424,-187 629.0424,-191 608.0424,-191 605.0424,-187 523.9576,-187 523.9576,-151 632.0424,-151 632.0424,-187"/>
<text text-anchor="middle" x="578" y="-164.8" font-family="Times,serif" font-size="14.00" fill="#000000">ContactsModule</text>
</g>
<!-- ContactsComponent&#45;&gt;ContactsModule -->
<g id="edge1" class="edge">
<title>ContactsComponent&#45;&gt;ContactsModule</title>
<path fill="none" stroke="#000000" d="M1018,-122.2843C1018,-143.3211 1018,-175 1018,-175 1018,-175 642.3939,-175 642.3939,-175"/>
<polygon fill="#000000" stroke="#000000" points="642.394,-171.5001 632.3939,-175 642.3939,-178.5001 642.394,-171.5001"/>
</g>
<!-- ContactsHeaderComponent -->
<g id="node2" class="node">
<title>ContactsHeaderComponent</title>
<polygon fill="#ffffb3" stroke="#000000" points="934.2352,-122 763.7648,-122 763.7648,-86 934.2352,-86 934.2352,-122"/>
<text text-anchor="middle" x="849" y="-99.8" font-family="Times,serif" font-size="14.00" fill="#000000">ContactsHeaderComponent</text>
</g>
<!-- ContactsHeaderComponent&#45;&gt;ContactsModule -->
<g id="edge2" class="edge">
<title>ContactsHeaderComponent&#45;&gt;ContactsModule</title>
<path fill="none" stroke="#000000" d="M849,-122.0225C849,-139.3734 849,-163 849,-163 849,-163 642.1896,-163 642.1896,-163"/>
<polygon fill="#000000" stroke="#000000" points="642.1896,-159.5001 632.1896,-163 642.1895,-166.5001 642.1896,-159.5001"/>
</g>
<!-- ContactsListComponent -->
<g id="node3" class="node">
<title>ContactsListComponent</title>
<polygon fill="#ffffb3" stroke="#000000" points="746.1024,-122 593.8976,-122 593.8976,-86 746.1024,-86 746.1024,-122"/>
<text text-anchor="middle" x="670" y="-99.8" font-family="Times,serif" font-size="14.00" fill="#000000">ContactsListComponent</text>
</g>
<!-- ContactsListComponent&#45;&gt;ContactsModule -->
<g id="edge3" class="edge">
<title>ContactsListComponent&#45;&gt;ContactsModule</title>
<path fill="none" stroke="#000000" d="M613.1098,-122.1061C613.1098,-122.1061 613.1098,-140.991 613.1098,-140.991"/>
<polygon fill="#000000" stroke="#000000" points="609.6098,-140.9909 613.1098,-150.991 616.6098,-140.991 609.6098,-140.9909"/>
</g>
<!-- ContactsListItemComponent -->
<g id="node4" class="node">
<title>ContactsListItemComponent</title>
<polygon fill="#ffffb3" stroke="#000000" points="575.759,-122 398.241,-122 398.241,-86 575.759,-86 575.759,-122"/>
<text text-anchor="middle" x="487" y="-99.8" font-family="Times,serif" font-size="14.00" fill="#000000">ContactsListItemComponent</text>
</g>
<!-- ContactsListItemComponent&#45;&gt;ContactsModule -->
<g id="edge4" class="edge">
<title>ContactsListItemComponent&#45;&gt;ContactsModule</title>
<path fill="none" stroke="#000000" d="M549.8044,-122.1061C549.8044,-122.1061 549.8044,-140.991 549.8044,-140.991"/>
<polygon fill="#000000" stroke="#000000" points="546.3044,-140.9909 549.8044,-150.991 553.3044,-140.991 546.3044,-140.9909"/>
</g>
<!-- ContactsSearchComponent -->
<g id="node5" class="node">
<title>ContactsSearchComponent</title>
<polygon fill="#ffffb3" stroke="#000000" points="380.4115,-122 211.5885,-122 211.5885,-86 380.4115,-86 380.4115,-122"/>
<text text-anchor="middle" x="296" y="-99.8" font-family="Times,serif" font-size="14.00" fill="#000000">ContactsSearchComponent</text>
</g>
<!-- ContactsSearchComponent&#45;&gt;ContactsModule -->
<g id="edge5" class="edge">
<title>ContactsSearchComponent&#45;&gt;ContactsModule</title>
<path fill="none" stroke="#000000" d="M296,-122.0225C296,-139.3734 296,-163 296,-163 296,-163 513.6276,-163 513.6276,-163"/>
<polygon fill="#000000" stroke="#000000" points="513.6276,-166.5001 523.6276,-163 513.6275,-159.5001 513.6276,-166.5001"/>
</g>
<!-- ContactsSettingComponent -->
<g id="node6" class="node">
<title>ContactsSettingComponent</title>
<polygon fill="#ffffb3" stroke="#000000" points="193.993,-122 24.007,-122 24.007,-86 193.993,-86 193.993,-122"/>
<text text-anchor="middle" x="109" y="-99.8" font-family="Times,serif" font-size="14.00" fill="#000000">ContactsSettingComponent</text>
</g>
<!-- ContactsSettingComponent&#45;&gt;ContactsModule -->
<g id="edge6" class="edge">
<title>ContactsSettingComponent&#45;&gt;ContactsModule</title>
<path fill="none" stroke="#000000" d="M109,-122.2843C109,-143.3211 109,-175 109,-175 109,-175 513.7416,-175 513.7416,-175"/>
<polygon fill="#000000" stroke="#000000" points="513.7416,-178.5001 523.7416,-175 513.7415,-171.5001 513.7416,-178.5001"/>
</g>
<!-- ContactsComponent  -->
<g id="node8" class="node">
<title>ContactsComponent </title>
<polygon fill="#fb8072" stroke="#000000" points="644.8241,-252 511.1759,-252 511.1759,-216 644.8241,-216 644.8241,-252"/>
<text text-anchor="middle" x="578" y="-229.8" font-family="Times,serif" font-size="14.00" fill="#000000">ContactsComponent </text>
</g>
<!-- ContactsModule&#45;&gt;ContactsComponent  -->
<g id="edge7" class="edge">
<title>ContactsModule&#45;&gt;ContactsComponent </title>
<path fill="none" stroke="#000000" stroke-dasharray="5,2" d="M578,-187.1061C578,-187.1061 578,-205.991 578,-205.991"/>
<polygon fill="#000000" stroke="#000000" points="574.5001,-205.9909 578,-215.991 581.5001,-205.991 574.5001,-205.9909"/>
</g>
</g>
</svg>
