<?xml version="1.0" encoding="UTF-8" standalone="no"?>
<!DOCTYPE svg PUBLIC "-//W3C//DTD SVG 1.1//EN"
 "http://www.w3.org/Graphics/SVG/1.1/DTD/svg11.dtd">
<!-- Generated by graphviz version 2.40.1 (20161225.0304)
 -->
<!-- Title: dependencies Pages: 1 -->
<svg width="687pt" height="284pt"
 viewBox="0.00 0.00 687.00 284.00" xmlns="http://www.w3.org/2000/svg" xmlns:xlink="http://www.w3.org/1999/xlink">
<g id="graph0" class="graph" transform="scale(1 1) rotate(0) translate(4 280)">
<title>dependencies</title>
<polygon fill="#ffffff" stroke="transparent" points="-4,4 -4,-280 683,-280 683,4 -4,4"/>
<text text-anchor="start" x="318.5091" y="-42.4" font-family="sans-serif" font-weight="bold" font-size="14.00" fill="#000000">Legend</text>
<polygon fill="#ffffb3" stroke="transparent" points="105.5,-10 105.5,-30 125.5,-30 125.5,-10 105.5,-10"/>
<text text-anchor="start" x="129.129" y="-15.4" font-family="sans-serif" font-size="14.00" fill="#000000"> &#160;Declarations</text>
<polygon fill="#8dd3c7" stroke="transparent" points="218.5,-10 218.5,-30 238.5,-30 238.5,-10 218.5,-10"/>
<text text-anchor="start" x="242.2251" y="-15.4" font-family="sans-serif" font-size="14.00" fill="#000000"> &#160;Module</text>
<polygon fill="#80b1d3" stroke="transparent" points="304.5,-10 304.5,-30 324.5,-30 324.5,-10 304.5,-10"/>
<text text-anchor="start" x="328.2812" y="-15.4" font-family="sans-serif" font-size="14.00" fill="#000000"> &#160;Bootstrap</text>
<polygon fill="#fdb462" stroke="transparent" points="401.5,-10 401.5,-30 421.5,-30 421.5,-10 401.5,-10"/>
<text text-anchor="start" x="425.1732" y="-15.4" font-family="sans-serif" font-size="14.00" fill="#000000"> &#160;Providers</text>
<polygon fill="#fb8072" stroke="transparent" points="497.5,-10 497.5,-30 517.5,-30 517.5,-10 497.5,-10"/>
<text text-anchor="start" x="521.2258" y="-15.4" font-family="sans-serif" font-size="14.00" fill="#000000"> &#160;Exports</text>
<g id="clust1" class="cluster">
<title>cluster_BaseModule</title>
<polygon fill="none" stroke="#000000" stroke-dasharray="1,5" points="8,-70 8,-268 671,-268 671,-70 8,-70"/>
</g>
<g id="clust2" class="cluster">
<title>cluster_BaseModule_declarations</title>
<polygon fill="none" stroke="#000000" points="25,-78 25,-130 657,-130 657,-78 25,-78"/>
</g>
<g id="clust8" class="cluster">
<title>cluster_BaseModule_exports</title>
<polygon fill="none" stroke="#000000" points="16,-208 16,-260 663,-260 663,-208 16,-208"/>
</g>
<!-- BaseAvatarComponent -->
<g id="node1" class="node">
<title>BaseAvatarComponent</title>
<polygon fill="#ffffb3" stroke="#000000" points="649.1303,-122 502.8697,-122 502.8697,-86 649.1303,-86 649.1303,-122"/>
<text text-anchor="middle" x="576" y="-99.8" font-family="Times,serif" font-size="14.00" fill="#000000">BaseAvatarComponent</text>
</g>
<!-- BaseModule -->
<g id="node5" class="node">
<title>BaseModule</title>
<polygon fill="#8dd3c7" stroke="#000000" points="300.2605,-187 297.2605,-191 276.2605,-191 273.2605,-187 213.7395,-187 213.7395,-151 300.2605,-151 300.2605,-187"/>
<text text-anchor="middle" x="257" y="-164.8" font-family="Times,serif" font-size="14.00" fill="#000000">BaseModule</text>
</g>
<!-- BaseAvatarComponent&#45;&gt;BaseModule -->
<g id="edge1" class="edge">
<title>BaseAvatarComponent&#45;&gt;BaseModule</title>
<path fill="none" stroke="#000000" d="M601.1883,-122.2667C601.1883,-140.5552 601.1883,-166 601.1883,-166 601.1883,-166 310.5917,-166 310.5917,-166"/>
<polygon fill="#000000" stroke="#000000" points="310.5917,-162.5001 300.5917,-166 310.5917,-169.5001 310.5917,-162.5001"/>
</g>
<!-- BaseImageComponent -->
<g id="node2" class="node">
<title>BaseImageComponent</title>
<polygon fill="#ffffb3" stroke="#000000" points="484.524,-122 341.476,-122 341.476,-86 484.524,-86 484.524,-122"/>
<text text-anchor="middle" x="413" y="-99.8" font-family="Times,serif" font-size="14.00" fill="#000000">BaseImageComponent</text>
</g>
<!-- BaseImageComponent&#45;&gt;BaseModule -->
<g id="edge2" class="edge">
<title>BaseImageComponent&#45;&gt;BaseModule</title>
<path fill="none" stroke="#000000" d="M436.9205,-122.0091C436.9205,-138.0494 436.9205,-159 436.9205,-159 436.9205,-159 310.5537,-159 310.5537,-159"/>
<polygon fill="#000000" stroke="#000000" points="310.5538,-155.5001 300.5537,-159 310.5537,-162.5001 310.5538,-155.5001"/>
</g>
<!-- BaseInputComponent -->
<g id="node3" class="node">
<title>BaseInputComponent</title>
<polygon fill="#ffffb3" stroke="#000000" points="323.094,-122 184.906,-122 184.906,-86 323.094,-86 323.094,-122"/>
<text text-anchor="middle" x="254" y="-99.8" font-family="Times,serif" font-size="14.00" fill="#000000">BaseInputComponent</text>
</g>
<!-- BaseInputComponent&#45;&gt;BaseModule -->
<g id="edge3" class="edge">
<title>BaseInputComponent&#45;&gt;BaseModule</title>
<path fill="none" stroke="#000000" d="M257,-122.1061C257,-122.1061 257,-140.991 257,-140.991"/>
<polygon fill="#000000" stroke="#000000" points="253.5001,-140.9909 257,-150.991 260.5001,-140.991 253.5001,-140.9909"/>
</g>
<!-- BaseTextComponent -->
<g id="node4" class="node">
<title>BaseTextComponent</title>
<polygon fill="#ffffb3" stroke="#000000" points="167.2008,-122 32.7992,-122 32.7992,-86 167.2008,-86 167.2008,-122"/>
<text text-anchor="middle" x="100" y="-99.8" font-family="Times,serif" font-size="14.00" fill="#000000">BaseTextComponent</text>
</g>
<!-- BaseTextComponent&#45;&gt;BaseModule -->
<g id="edge4" class="edge">
<title>BaseTextComponent&#45;&gt;BaseModule</title>
<path fill="none" stroke="#000000" d="M118.8668,-122.0225C118.8668,-139.3734 118.8668,-163 118.8668,-163 118.8668,-163 203.6728,-163 203.6728,-163"/>
<polygon fill="#000000" stroke="#000000" points="203.6728,-166.5001 213.6728,-163 203.6727,-159.5001 203.6728,-166.5001"/>
</g>
<!-- BaseAvatarComponent  -->
<g id="node6" class="node">
<title>BaseAvatarComponent </title>
<polygon fill="#fb8072" stroke="#000000" points="655.1299,-252 504.8701,-252 504.8701,-216 655.1299,-216 655.1299,-252"/>
<text text-anchor="middle" x="580" y="-229.8" font-family="Times,serif" font-size="14.00" fill="#000000">BaseAvatarComponent </text>
</g>
<!-- BaseModule&#45;&gt;BaseAvatarComponent  -->
<g id="edge5" class="edge">
<title>BaseModule&#45;&gt;BaseAvatarComponent </title>
<path fill="none" stroke="#000000" stroke-dasharray="5,2" d="M300.367,-173C382.601,-173 553.0617,-173 553.0617,-173 553.0617,-173 553.0617,-205.698 553.0617,-205.698"/>
<polygon fill="#000000" stroke="#000000" points="549.5618,-205.698 553.0617,-215.698 556.5618,-205.698 549.5618,-205.698"/>
</g>
<!-- BaseImageComponent  -->
<g id="node7" class="node">
<title>BaseImageComponent </title>
<polygon fill="#fb8072" stroke="#000000" points="486.5232,-252 339.4768,-252 339.4768,-216 486.5232,-216 486.5232,-252"/>
<text text-anchor="middle" x="413" y="-229.8" font-family="Times,serif" font-size="14.00" fill="#000000">BaseImageComponent </text>
</g>
<!-- BaseModule&#45;&gt;BaseImageComponent  -->
<g id="edge6" class="edge">
<title>BaseModule&#45;&gt;BaseImageComponent </title>
<path fill="none" stroke="#000000" stroke-dasharray="5,2" d="M300.6138,-180C339.0856,-180 389.0795,-180 389.0795,-180 389.0795,-180 389.0795,-205.7181 389.0795,-205.7181"/>
<polygon fill="#000000" stroke="#000000" points="385.5796,-205.718 389.0795,-215.7181 392.5796,-205.7181 385.5796,-205.718"/>
</g>
<!-- BaseInputComponent  -->
<g id="node8" class="node">
<title>BaseInputComponent </title>
<polygon fill="#fb8072" stroke="#000000" points="321.5946,-252 180.4054,-252 180.4054,-216 321.5946,-216 321.5946,-252"/>
<text text-anchor="middle" x="251" y="-229.8" font-family="Times,serif" font-size="14.00" fill="#000000">BaseInputComponent </text>
</g>
<!-- BaseModule&#45;&gt;BaseInputComponent  -->
<g id="edge7" class="edge">
<title>BaseModule&#45;&gt;BaseInputComponent </title>
<path fill="none" stroke="#000000" stroke-dasharray="5,2" d="M257,-187.1061C257,-187.1061 257,-205.991 257,-205.991"/>
<polygon fill="#000000" stroke="#000000" points="253.5001,-205.9909 257,-215.991 260.5001,-205.991 253.5001,-205.9909"/>
</g>
<!-- BaseTextComponent  -->
<g id="node9" class="node">
<title>BaseTextComponent </title>
<polygon fill="#fb8072" stroke="#000000" points="161.7009,-252 24.2991,-252 24.2991,-216 161.7009,-216 161.7009,-252"/>
<text text-anchor="middle" x="93" y="-229.8" font-family="Times,serif" font-size="14.00" fill="#000000">BaseTextComponent </text>
</g>
<!-- BaseModule&#45;&gt;BaseTextComponent  -->
<g id="edge8" class="edge">
<title>BaseModule&#45;&gt;BaseTextComponent </title>
<path fill="none" stroke="#000000" stroke-dasharray="5,2" d="M213.618,-175C160.0362,-175 75.8832,-175 75.8832,-175 75.8832,-175 75.8832,-205.9775 75.8832,-205.9775"/>
<polygon fill="#000000" stroke="#000000" points="72.3833,-205.9774 75.8832,-215.9775 79.3833,-205.9775 72.3833,-205.9774"/>
</g>
</g>
</svg>
