<?xml version="1.0" encoding="UTF-8" standalone="no"?>
<!DOCTYPE svg PUBLIC "-//W3C//DTD SVG 1.1//EN"
 "http://www.w3.org/Graphics/SVG/1.1/DTD/svg11.dtd">
<!-- Generated by graphviz version 2.40.1 (20161225.0304)
 -->
<!-- Title: dependencies Pages: 1 -->
<svg width="724pt" height="284pt"
 viewBox="0.00 0.00 724.00 284.00" xmlns="http://www.w3.org/2000/svg" xmlns:xlink="http://www.w3.org/1999/xlink">
<g id="graph0" class="graph" transform="scale(1 1) rotate(0) translate(4 280)">
<title>dependencies</title>
<polygon fill="#ffffff" stroke="transparent" points="-4,4 -4,-280 720,-280 720,4 -4,4"/>
<text text-anchor="start" x="337.0091" y="-42.4" font-family="sans-serif" font-weight="bold" font-size="14.00" fill="#000000">Legend</text>
<polygon fill="#ffffb3" stroke="transparent" points="124,-10 124,-30 144,-30 144,-10 124,-10"/>
<text text-anchor="start" x="147.629" y="-15.4" font-family="sans-serif" font-size="14.00" fill="#000000"> &#160;Declarations</text>
<polygon fill="#8dd3c7" stroke="transparent" points="237,-10 237,-30 257,-30 257,-10 237,-10"/>
<text text-anchor="start" x="260.7251" y="-15.4" font-family="sans-serif" font-size="14.00" fill="#000000"> &#160;Module</text>
<polygon fill="#80b1d3" stroke="transparent" points="323,-10 323,-30 343,-30 343,-10 323,-10"/>
<text text-anchor="start" x="346.7812" y="-15.4" font-family="sans-serif" font-size="14.00" fill="#000000"> &#160;Bootstrap</text>
<polygon fill="#fdb462" stroke="transparent" points="420,-10 420,-30 440,-30 440,-10 420,-10"/>
<text text-anchor="start" x="443.6732" y="-15.4" font-family="sans-serif" font-size="14.00" fill="#000000"> &#160;Providers</text>
<polygon fill="#fb8072" stroke="transparent" points="516,-10 516,-30 536,-30 536,-10 516,-10"/>
<text text-anchor="start" x="539.7258" y="-15.4" font-family="sans-serif" font-size="14.00" fill="#000000"> &#160;Exports</text>
<g id="clust1" class="cluster">
<title>cluster_ScreensModule</title>
<polygon fill="none" stroke="#000000" stroke-dasharray="1,5" points="8,-70 8,-268 708,-268 708,-70 8,-70"/>
</g>
<g id="clust2" class="cluster">
<title>cluster_ScreensModule_declarations</title>
<polygon fill="none" stroke="#000000" points="368,-78 368,-130 700,-130 700,-78 368,-78"/>
</g>
<g id="clust5" class="cluster">
<title>cluster_ScreensModule_imports</title>
<polygon fill="none" stroke="#000000" points="16,-78 16,-130 360,-130 360,-78 16,-78"/>
</g>
<g id="clust6" class="cluster">
<title>cluster_ScreensModule_exports</title>
<polygon fill="none" stroke="#000000" points="138,-208 138,-260 478,-260 478,-208 138,-208"/>
</g>
<!-- ScreenChatComponent -->
<g id="node1" class="node">
<title>ScreenChatComponent</title>
<polygon fill="#ffffb3" stroke="#000000" points="691.8613,-122 546.1387,-122 546.1387,-86 691.8613,-86 691.8613,-122"/>
<text text-anchor="middle" x="619" y="-99.8" font-family="Times,serif" font-size="14.00" fill="#000000">ScreenChatComponent</text>
</g>
<!-- ScreensModule -->
<g id="node3" class="node">
<title>ScreensModule</title>
<polygon fill="#8dd3c7" stroke="#000000" points="360.5814,-187 357.5814,-191 336.5814,-191 333.5814,-187 257.4186,-187 257.4186,-151 360.5814,-151 360.5814,-187"/>
<text text-anchor="middle" x="309" y="-164.8" font-family="Times,serif" font-size="14.00" fill="#000000">ScreensModule</text>
</g>
<!-- ScreenChatComponent&#45;&gt;ScreensModule -->
<g id="edge1" class="edge">
<title>ScreenChatComponent&#45;&gt;ScreensModule</title>
<path fill="none" stroke="#000000" d="M619,-122.1061C619,-141.3391 619,-169 619,-169 619,-169 370.887,-169 370.887,-169"/>
<polygon fill="#000000" stroke="#000000" points="370.8871,-165.5001 360.887,-169 370.887,-172.5001 370.8871,-165.5001"/>
</g>
<!-- ScreenLoginComponent -->
<g id="node2" class="node">
<title>ScreenLoginComponent</title>
<polygon fill="#ffffb3" stroke="#000000" points="528.3627,-122 375.6373,-122 375.6373,-86 528.3627,-86 528.3627,-122"/>
<text text-anchor="middle" x="452" y="-99.8" font-family="Times,serif" font-size="14.00" fill="#000000">ScreenLoginComponent</text>
</g>
<!-- ScreenLoginComponent&#45;&gt;ScreensModule -->
<g id="edge2" class="edge">
<title>ScreenLoginComponent&#45;&gt;ScreensModule</title>
<path fill="none" stroke="#000000" d="M375.1818,-104C364.0526,-104 356.2682,-104 356.2682,-104 356.2682,-104 356.2682,-140.8939 356.2682,-140.8939"/>
<polygon fill="#000000" stroke="#000000" points="352.7683,-140.8938 356.2682,-150.8939 359.7683,-140.8939 352.7683,-140.8938"/>
</g>
<!-- ScreenChatComponent  -->
<g id="node7" class="node">
<title>ScreenChatComponent </title>
<polygon fill="#fb8072" stroke="#000000" points="469.8616,-252 320.1384,-252 320.1384,-216 469.8616,-216 469.8616,-252"/>
<text text-anchor="middle" x="395" y="-229.8" font-family="Times,serif" font-size="14.00" fill="#000000">ScreenChatComponent </text>
</g>
<!-- ScreensModule&#45;&gt;ScreenChatComponent  -->
<g id="edge6" class="edge">
<title>ScreensModule&#45;&gt;ScreenChatComponent </title>
<path fill="none" stroke="#000000" stroke-dasharray="5,2" d="M340.4301,-187.1061C340.4301,-187.1061 340.4301,-205.991 340.4301,-205.991"/>
<polygon fill="#000000" stroke="#000000" points="336.9301,-205.9909 340.4301,-215.991 343.9301,-205.991 336.9301,-205.9909"/>
</g>
<!-- ScreenLoginComponent  -->
<g id="node8" class="node">
<title>ScreenLoginComponent </title>
<polygon fill="#fb8072" stroke="#000000" points="302.363,-252 145.637,-252 145.637,-216 302.363,-216 302.363,-252"/>
<text text-anchor="middle" x="224" y="-229.8" font-family="Times,serif" font-size="14.00" fill="#000000">ScreenLoginComponent </text>
</g>
<!-- ScreensModule&#45;&gt;ScreenLoginComponent  -->
<g id="edge7" class="edge">
<title>ScreensModule&#45;&gt;ScreenLoginComponent </title>
<path fill="none" stroke="#000000" stroke-dasharray="5,2" d="M279.8203,-187.1061C279.8203,-187.1061 279.8203,-205.991 279.8203,-205.991"/>
<polygon fill="#000000" stroke="#000000" points="276.3204,-205.9909 279.8203,-215.991 283.3204,-205.991 276.3204,-205.9909"/>
</g>
<!-- ChatModule -->
<g id="node4" class="node">
<title>ChatModule</title>
<polygon fill="#8dd3c7" stroke="#000000" points="351.9916,-122 348.9916,-126 327.9916,-126 324.9916,-122 266.0084,-122 266.0084,-86 351.9916,-86 351.9916,-122"/>
<text text-anchor="middle" x="309" y="-99.8" font-family="Times,serif" font-size="14.00" fill="#000000">ChatModule</text>
</g>
<!-- ChatModule&#45;&gt;ScreensModule -->
<g id="edge3" class="edge">
<title>ChatModule&#45;&gt;ScreensModule</title>
<path fill="none" stroke="#000000" d="M309,-122.1061C309,-122.1061 309,-140.991 309,-140.991"/>
<polygon fill="#000000" stroke="#000000" points="305.5001,-140.9909 309,-150.991 312.5001,-140.991 305.5001,-140.9909"/>
</g>
<!-- ContactsModule -->
<g id="node5" class="node">
<title>ContactsModule</title>
<polygon fill="#8dd3c7" stroke="#000000" points="248.0424,-122 245.0424,-126 224.0424,-126 221.0424,-122 139.9576,-122 139.9576,-86 248.0424,-86 248.0424,-122"/>
<text text-anchor="middle" x="194" y="-99.8" font-family="Times,serif" font-size="14.00" fill="#000000">ContactsModule</text>
</g>
<!-- ContactsModule&#45;&gt;ScreensModule -->
<g id="edge4" class="edge">
<title>ContactsModule&#45;&gt;ScreensModule</title>
<path fill="none" stroke="#000000" d="M248.3501,-104C256.2242,-104 261.7318,-104 261.7318,-104 261.7318,-104 261.7318,-140.8939 261.7318,-140.8939"/>
<polygon fill="#000000" stroke="#000000" points="258.2318,-140.8938 261.7318,-150.8939 265.2318,-140.8939 258.2318,-140.8938"/>
</g>
<!-- SharedModule -->
<g id="node6" class="node">
<title>SharedModule</title>
<polygon fill="#8dd3c7" stroke="#000000" points="122.4231,-122 119.4231,-126 98.4231,-126 95.4231,-122 23.5769,-122 23.5769,-86 122.4231,-86 122.4231,-122"/>
<text text-anchor="middle" x="73" y="-99.8" font-family="Times,serif" font-size="14.00" fill="#000000">SharedModule</text>
</g>
<!-- SharedModule&#45;&gt;ScreensModule -->
<g id="edge5" class="edge">
<title>SharedModule&#45;&gt;ScreensModule</title>
<path fill="none" stroke="#000000" d="M73,-122.1061C73,-141.3391 73,-169 73,-169 73,-169 247.2088,-169 247.2088,-169"/>
<polygon fill="#000000" stroke="#000000" points="247.2088,-172.5001 257.2088,-169 247.2088,-165.5001 247.2088,-172.5001"/>
</g>
</g>
</svg>
