<?xml version="1.0" encoding="UTF-8" standalone="no"?>
<!DOCTYPE svg PUBLIC "-//W3C//DTD SVG 1.1//EN"
 "http://www.w3.org/Graphics/SVG/1.1/DTD/svg11.dtd">
<!-- Generated by graphviz version 2.40.1 (20161225.0304)
 -->
<!-- Title: dependencies Pages: 1 -->
<svg width="3497pt" height="496pt"
 viewBox="0.00 0.00 3497.00 496.00" xmlns="http://www.w3.org/2000/svg" xmlns:xlink="http://www.w3.org/1999/xlink">
<g id="graph0" class="graph" transform="scale(1 1) rotate(0) translate(4 492)">
<title>dependencies</title>
<polygon fill="#ffffff" stroke="transparent" points="-4,4 -4,-492 3493,-492 3493,4 -4,4"/>
<text text-anchor="start" x="1723.5091" y="-42.4" font-family="sans-serif" font-weight="bold" font-size="14.00" fill="#000000">Legend</text>
<polygon fill="#ffffb3" stroke="transparent" points="1510.5,-10 1510.5,-30 1530.5,-30 1530.5,-10 1510.5,-10"/>
<text text-anchor="start" x="1534.129" y="-15.4" font-family="sans-serif" font-size="14.00" fill="#000000"> &#160;Declarations</text>
<polygon fill="#8dd3c7" stroke="transparent" points="1623.5,-10 1623.5,-30 1643.5,-30 1643.5,-10 1623.5,-10"/>
<text text-anchor="start" x="1647.2251" y="-15.4" font-family="sans-serif" font-size="14.00" fill="#000000"> &#160;Module</text>
<polygon fill="#80b1d3" stroke="transparent" points="1709.5,-10 1709.5,-30 1729.5,-30 1729.5,-10 1709.5,-10"/>
<text text-anchor="start" x="1733.2812" y="-15.4" font-family="sans-serif" font-size="14.00" fill="#000000"> &#160;Bootstrap</text>
<polygon fill="#fdb462" stroke="transparent" points="1806.5,-10 1806.5,-30 1826.5,-30 1826.5,-10 1806.5,-10"/>
<text text-anchor="start" x="1830.1732" y="-15.4" font-family="sans-serif" font-size="14.00" fill="#000000"> &#160;Providers</text>
<polygon fill="#fb8072" stroke="transparent" points="1902.5,-10 1902.5,-30 1922.5,-30 1922.5,-10 1902.5,-10"/>
<text text-anchor="start" x="1926.2258" y="-15.4" font-family="sans-serif" font-size="14.00" fill="#000000"> &#160;Exports</text>
<g id="clust1" class="cluster">
<title>cluster_AppModule</title>
<polygon fill="none" stroke="#000000" stroke-dasharray="1,5" points="2188,-282 2188,-480 2600,-480 2600,-282 2188,-282"/>
</g>
<g id="clust2" class="cluster">
<title>cluster_AppModule_declarations</title>
<polygon fill="none" stroke="#000000" points="2470,-290 2470,-342 2592,-342 2592,-290 2470,-290"/>
</g>
<g id="clust4" class="cluster">
<title>cluster_AppModule_imports</title>
<polygon fill="none" stroke="#000000" points="2196,-290 2196,-342 2462,-342 2462,-290 2196,-290"/>
</g>
<g id="clust6" class="cluster">
<title>cluster_AppModule_bootstrap</title>
<polygon fill="none" stroke="#000000" points="2328,-420 2328,-472 2452,-472 2452,-420 2328,-420"/>
</g>
<g id="clust14" class="cluster">
<title>cluster_BaseModule</title>
<polygon fill="none" stroke="#000000" stroke-dasharray="1,5" points="2817,-70 2817,-274 3481,-274 3481,-70 2817,-70"/>
</g>
<g id="clust15" class="cluster">
<title>cluster_BaseModule_declarations</title>
<polygon fill="none" stroke="#000000" points="2833,-78 2833,-130 3465,-130 3465,-78 2833,-78"/>
</g>
<g id="clust21" class="cluster">
<title>cluster_BaseModule_exports</title>
<polygon fill="none" stroke="#000000" points="2825,-214 2825,-266 3473,-266 3473,-214 2825,-214"/>
</g>
<g id="clust24" class="cluster">
<title>cluster_ChatModule</title>
<polygon fill="none" stroke="#000000" stroke-dasharray="1,5" points="8,-138 8,-350 884,-350 884,-138 8,-138"/>
</g>
<g id="clust25" class="cluster">
<title>cluster_ChatModule_declarations</title>
<polygon fill="none" stroke="#000000" points="16,-146 16,-198 876,-198 876,-146 16,-146"/>
</g>
<g id="clust32" class="cluster">
<title>cluster_ChatModule_exports</title>
<polygon fill="none" stroke="#000000" points="420,-290 420,-342 548,-342 548,-290 420,-290"/>
</g>
<g id="clust35" class="cluster">
<title>cluster_ContactsModule</title>
<polygon fill="none" stroke="#000000" stroke-dasharray="1,5" points="892,-138 892,-350 1983,-350 1983,-138 892,-138"/>
</g>
<g id="clust36" class="cluster">
<title>cluster_ContactsModule_declarations</title>
<polygon fill="none" stroke="#000000" points="900,-146 900,-198 1975,-198 1975,-146 900,-146"/>
</g>
<g id="clust44" class="cluster">
<title>cluster_ContactsModule_exports</title>
<polygon fill="none" stroke="#000000" points="1479,-290 1479,-342 1629,-342 1629,-290 1479,-290"/>
</g>
<g id="clust47" class="cluster">
<title>cluster_ScreensModule</title>
<polygon fill="none" stroke="#000000" stroke-dasharray="1,5" points="1991,-206 1991,-274 2809,-274 2809,-206 1991,-206"/>
</g>
<g id="clust48" class="cluster">
<title>cluster_ScreensModule_declarations</title>
<polygon fill="none" stroke="#000000" points="2347,-214 2347,-266 2679,-266 2679,-214 2347,-214"/>
</g>
<g id="clust51" class="cluster">
<title>cluster_ScreensModule_imports</title>
<polygon fill="none" stroke="#000000" points="2687,-214 2687,-266 2801,-266 2801,-214 2687,-214"/>
</g>
<g id="clust52" class="cluster">
<title>cluster_ScreensModule_exports</title>
<polygon fill="none" stroke="#000000" points="1999,-214 1999,-266 2339,-266 2339,-214 1999,-214"/>
</g>
<g id="clust55" class="cluster">
<title>cluster_SharedModule</title>
<polygon fill="none" stroke="#000000" stroke-dasharray="1,5" points="2683,-282 2683,-350 2805,-350 2805,-282 2683,-282"/>
</g>
<g id="clust58" class="cluster">
<title>cluster_SharedModule_exports</title>
<polygon fill="none" stroke="#000000" points="2691,-290 2691,-342 2797,-342 2797,-290 2691,-290"/>
</g>
<!-- AppComponent -->
<g id="node1" class="node">
<title>AppComponent</title>
<polygon fill="#ffffb3" stroke="#000000" points="2583.9399,-334 2478.0601,-334 2478.0601,-298 2583.9399,-298 2583.9399,-334"/>
<text text-anchor="middle" x="2531" y="-311.8" font-family="Times,serif" font-size="14.00" fill="#000000">AppComponent</text>
</g>
<!-- AppModule -->
<g id="node2" class="node">
<title>AppModule</title>
<polygon fill="#8dd3c7" stroke="#000000" points="2431.6571,-399 2428.6571,-403 2407.6571,-403 2404.6571,-399 2348.3429,-399 2348.3429,-363 2431.6571,-363 2431.6571,-399"/>
<text text-anchor="middle" x="2390" y="-376.8" font-family="Times,serif" font-size="14.00" fill="#000000">AppModule</text>
</g>
<!-- AppComponent&#45;&gt;AppModule -->
<g id="edge1" class="edge">
<title>AppComponent&#45;&gt;AppModule</title>
<path fill="none" stroke="#000000" d="M2531,-334.1061C2531,-353.3391 2531,-381 2531,-381 2531,-381 2441.9229,-381 2441.9229,-381"/>
<polygon fill="#000000" stroke="#000000" points="2441.9229,-377.5001 2431.9229,-381 2441.9229,-384.5001 2441.9229,-377.5001"/>
</g>
<!-- AppComponent  -->
<g id="node5" class="node">
<title>AppComponent </title>
<polygon fill="#80b1d3" stroke="#000000" points="2444.439,-464 2335.561,-464 2335.561,-428 2444.439,-428 2444.439,-464"/>
<text text-anchor="middle" x="2390" y="-441.8" font-family="Times,serif" font-size="14.00" fill="#000000">AppComponent </text>
</g>
<!-- AppModule&#45;&gt;AppComponent  -->
<g id="edge4" class="edge">
<title>AppModule&#45;&gt;AppComponent </title>
<path fill="none" stroke="#000000" stroke-dasharray="1,5" d="M2390,-399.1061C2390,-399.1061 2390,-417.991 2390,-417.991"/>
<polygon fill="#000000" stroke="#000000" points="2386.5001,-417.9909 2390,-427.991 2393.5001,-417.991 2386.5001,-417.9909"/>
</g>
<!-- AppRoutingModule -->
<g id="node3" class="node">
<title>AppRoutingModule</title>
<polygon fill="#8dd3c7" stroke="#000000" points="2454.2744,-334 2451.2744,-338 2430.2744,-338 2427.2744,-334 2325.7256,-334 2325.7256,-298 2454.2744,-298 2454.2744,-334"/>
<text text-anchor="middle" x="2390" y="-311.8" font-family="Times,serif" font-size="14.00" fill="#000000">AppRoutingModule</text>
</g>
<!-- AppRoutingModule&#45;&gt;AppModule -->
<g id="edge2" class="edge">
<title>AppRoutingModule&#45;&gt;AppModule</title>
<path fill="none" stroke="#000000" d="M2390,-334.1061C2390,-334.1061 2390,-352.991 2390,-352.991"/>
<polygon fill="#000000" stroke="#000000" points="2386.5001,-352.9909 2390,-362.991 2393.5001,-352.991 2386.5001,-352.9909"/>
</g>
<!-- ScreensModule -->
<g id="node4" class="node">
<title>ScreensModule</title>
<polygon fill="#8dd3c7" stroke="#000000" points="2307.5814,-334 2304.5814,-338 2283.5814,-338 2280.5814,-334 2204.4186,-334 2204.4186,-298 2307.5814,-298 2307.5814,-334"/>
<text text-anchor="middle" x="2256" y="-311.8" font-family="Times,serif" font-size="14.00" fill="#000000">ScreensModule</text>
</g>
<!-- ScreensModule&#45;&gt;AppModule -->
<g id="edge3" class="edge">
<title>ScreensModule&#45;&gt;AppModule</title>
<path fill="none" stroke="#000000" d="M2256,-334.1061C2256,-353.3391 2256,-381 2256,-381 2256,-381 2338.3361,-381 2338.3361,-381"/>
<polygon fill="#000000" stroke="#000000" points="2338.3361,-384.5001 2348.3361,-381 2338.3361,-377.5001 2338.3361,-384.5001"/>
</g>
<!-- ScreenChatComponent  -->
<g id="node33" class="node">
<title>ScreenChatComponent </title>
<polygon fill="#fb8072" stroke="#000000" points="2330.8616,-258 2181.1384,-258 2181.1384,-222 2330.8616,-222 2330.8616,-258"/>
<text text-anchor="middle" x="2256" y="-235.8" font-family="Times,serif" font-size="14.00" fill="#000000">ScreenChatComponent </text>
</g>
<!-- ScreensModule&#45;&gt;ScreenChatComponent  -->
<g id="edge31" class="edge">
<title>ScreensModule&#45;&gt;ScreenChatComponent </title>
<path fill="none" stroke="#000000" stroke-dasharray="5,2" d="M2238.8198,-297.9891C2238.8198,-297.9891 2238.8198,-268.145 2238.8198,-268.145"/>
<polygon fill="#000000" stroke="#000000" points="2242.3199,-268.145 2238.8198,-258.145 2235.3199,-268.1451 2242.3199,-268.145"/>
</g>
<!-- ScreenLoginComponent  -->
<g id="node34" class="node">
<title>ScreenLoginComponent </title>
<polygon fill="#fb8072" stroke="#000000" points="2163.363,-258 2006.637,-258 2006.637,-222 2163.363,-222 2163.363,-258"/>
<text text-anchor="middle" x="2085" y="-235.8" font-family="Times,serif" font-size="14.00" fill="#000000">ScreenLoginComponent </text>
</g>
<!-- ScreensModule&#45;&gt;ScreenLoginComponent  -->
<g id="edge32" class="edge">
<title>ScreensModule&#45;&gt;ScreenLoginComponent </title>
<path fill="none" stroke="#000000" stroke-dasharray="5,2" d="M2204.2303,-310C2153.9006,-310 2085,-310 2085,-310 2085,-310 2085,-268.0267 2085,-268.0267"/>
<polygon fill="#000000" stroke="#000000" points="2088.5001,-268.0267 2085,-258.0267 2081.5001,-268.0268 2088.5001,-268.0267"/>
</g>
<!-- BaseAvatarComponent -->
<g id="node6" class="node">
<title>BaseAvatarComponent</title>
<polygon fill="#ffffb3" stroke="#000000" points="3457.1303,-122 3310.8697,-122 3310.8697,-86 3457.1303,-86 3457.1303,-122"/>
<text text-anchor="middle" x="3384" y="-99.8" font-family="Times,serif" font-size="14.00" fill="#000000">BaseAvatarComponent</text>
</g>
<!-- BaseModule -->
<g id="node10" class="node">
<title>BaseModule</title>
<polygon fill="#8dd3c7" stroke="#000000" points="3117.2605,-190 3114.2605,-194 3093.2605,-194 3090.2605,-190 3030.7395,-190 3030.7395,-154 3117.2605,-154 3117.2605,-190"/>
<text text-anchor="middle" x="3074" y="-167.8" font-family="Times,serif" font-size="14.00" fill="#000000">BaseModule</text>
</g>
<!-- BaseAvatarComponent&#45;&gt;BaseModule -->
<g id="edge5" class="edge">
<title>BaseAvatarComponent&#45;&gt;BaseModule</title>
<path fill="none" stroke="#000000" d="M3316.9441,-122.1061C3316.9441,-141.3391 3316.9441,-169 3316.9441,-169 3316.9441,-169 3127.4335,-169 3127.4335,-169"/>
<polygon fill="#000000" stroke="#000000" points="3127.4336,-165.5001 3117.4335,-169 3127.4335,-172.5001 3127.4336,-165.5001"/>
</g>
<!-- BaseImageComponent -->
<g id="node7" class="node">
<title>BaseImageComponent</title>
<polygon fill="#ffffb3" stroke="#000000" points="3292.524,-122 3149.476,-122 3149.476,-86 3292.524,-86 3292.524,-122"/>
<text text-anchor="middle" x="3221" y="-99.8" font-family="Times,serif" font-size="14.00" fill="#000000">BaseImageComponent</text>
</g>
<!-- BaseImageComponent&#45;&gt;BaseModule -->
<g id="edge6" class="edge">
<title>BaseImageComponent&#45;&gt;BaseModule</title>
<path fill="none" stroke="#000000" d="M3158.1941,-122.0336C3158.1941,-139.0597 3158.1941,-162 3158.1941,-162 3158.1941,-162 3127.5767,-162 3127.5767,-162"/>
<polygon fill="#000000" stroke="#000000" points="3127.5768,-158.5001 3117.5767,-162 3127.5767,-165.5001 3127.5768,-158.5001"/>
</g>
<!-- BaseInputComponent -->
<g id="node8" class="node">
<title>BaseInputComponent</title>
<polygon fill="#ffffb3" stroke="#000000" points="3131.094,-122 2992.906,-122 2992.906,-86 3131.094,-86 3131.094,-122"/>
<text text-anchor="middle" x="3062" y="-99.8" font-family="Times,serif" font-size="14.00" fill="#000000">BaseInputComponent</text>
</g>
<!-- BaseInputComponent&#45;&gt;BaseModule -->
<g id="edge7" class="edge">
<title>BaseInputComponent&#45;&gt;BaseModule</title>
<path fill="none" stroke="#000000" d="M3074,-122.2228C3074,-122.2228 3074,-143.7269 3074,-143.7269"/>
<polygon fill="#000000" stroke="#000000" points="3070.5001,-143.7269 3074,-153.7269 3077.5001,-143.727 3070.5001,-143.7269"/>
</g>
<!-- BaseTextComponent -->
<g id="node9" class="node">
<title>BaseTextComponent</title>
<polygon fill="#ffffb3" stroke="#000000" points="2975.2008,-122 2840.7992,-122 2840.7992,-86 2975.2008,-86 2975.2008,-122"/>
<text text-anchor="middle" x="2908" y="-99.8" font-family="Times,serif" font-size="14.00" fill="#000000">BaseTextComponent</text>
</g>
<!-- BaseTextComponent&#45;&gt;BaseModule -->
<g id="edge8" class="edge">
<title>BaseTextComponent&#45;&gt;BaseModule</title>
<path fill="none" stroke="#000000" d="M2930.3668,-122.0225C2930.3668,-139.3734 2930.3668,-163 2930.3668,-163 2930.3668,-163 3020.5155,-163 3020.5155,-163"/>
<polygon fill="#000000" stroke="#000000" points="3020.5155,-166.5001 3030.5155,-163 3020.5155,-159.5001 3020.5155,-166.5001"/>
</g>
<!-- BaseAvatarComponent  -->
<g id="node11" class="node">
<title>BaseAvatarComponent </title>
<polygon fill="#fb8072" stroke="#000000" points="3149.1299,-258 2998.8701,-258 2998.8701,-222 3149.1299,-222 3149.1299,-258"/>
<text text-anchor="middle" x="3074" y="-235.8" font-family="Times,serif" font-size="14.00" fill="#000000">BaseAvatarComponent </text>
</g>
<!-- BaseModule&#45;&gt;BaseAvatarComponent  -->
<g id="edge9" class="edge">
<title>BaseModule&#45;&gt;BaseAvatarComponent </title>
<path fill="none" stroke="#000000" stroke-dasharray="5,2" d="M3074,-190.2228C3074,-190.2228 3074,-211.7269 3074,-211.7269"/>
<polygon fill="#000000" stroke="#000000" points="3070.5001,-211.7269 3074,-221.7269 3077.5001,-211.727 3070.5001,-211.7269"/>
</g>
<!-- BaseImageComponent  -->
<g id="node12" class="node">
<title>BaseImageComponent </title>
<polygon fill="#fb8072" stroke="#000000" points="2980.5232,-258 2833.4768,-258 2833.4768,-222 2980.5232,-222 2980.5232,-258"/>
<text text-anchor="middle" x="2907" y="-235.8" font-family="Times,serif" font-size="14.00" fill="#000000">BaseImageComponent </text>
</g>
<!-- BaseModule&#45;&gt;BaseImageComponent  -->
<g id="edge10" class="edge">
<title>BaseModule&#45;&gt;BaseImageComponent </title>
<path fill="none" stroke="#000000" stroke-dasharray="5,2" d="M3030.3114,-181C2974.666,-181 2885.6332,-181 2885.6332,-181 2885.6332,-181 2885.6332,-211.9775 2885.6332,-211.9775"/>
<polygon fill="#000000" stroke="#000000" points="2882.1333,-211.9774 2885.6332,-221.9775 2889.1333,-211.9775 2882.1333,-211.9774"/>
</g>
<!-- BaseInputComponent  -->
<g id="node13" class="node">
<title>BaseInputComponent </title>
<polygon fill="#fb8072" stroke="#000000" points="3464.5946,-258 3323.4054,-258 3323.4054,-222 3464.5946,-222 3464.5946,-258"/>
<text text-anchor="middle" x="3394" y="-235.8" font-family="Times,serif" font-size="14.00" fill="#000000">BaseInputComponent </text>
</g>
<!-- BaseModule&#45;&gt;BaseInputComponent  -->
<g id="edge11" class="edge">
<title>BaseModule&#45;&gt;BaseInputComponent </title>
<path fill="none" stroke="#000000" stroke-dasharray="5,2" d="M3117.3113,-176C3203.9267,-176 3390.259,-176 3390.259,-176 3390.259,-176 3390.259,-211.8314 3390.259,-211.8314"/>
<polygon fill="#000000" stroke="#000000" points="3386.759,-211.8313 3390.259,-221.8314 3393.759,-211.8314 3386.759,-211.8313"/>
</g>
<!-- BaseTextComponent  -->
<g id="node14" class="node">
<title>BaseTextComponent </title>
<polygon fill="#fb8072" stroke="#000000" points="3304.7009,-258 3167.2991,-258 3167.2991,-222 3304.7009,-222 3304.7009,-258"/>
<text text-anchor="middle" x="3236" y="-235.8" font-family="Times,serif" font-size="14.00" fill="#000000">BaseTextComponent </text>
</g>
<!-- BaseModule&#45;&gt;BaseTextComponent  -->
<g id="edge12" class="edge">
<title>BaseModule&#45;&gt;BaseTextComponent </title>
<path fill="none" stroke="#000000" stroke-dasharray="5,2" d="M3117.4423,-183C3163.5884,-183 3229.9557,-183 3229.9557,-183 3229.9557,-183 3229.9557,-211.9648 3229.9557,-211.9648"/>
<polygon fill="#000000" stroke="#000000" points="3226.4557,-211.9648 3229.9557,-221.9648 3233.4557,-211.9649 3226.4557,-211.9648"/>
</g>
<!-- SharedModule -->
<g id="node32" class="node">
<title>SharedModule</title>
<polygon fill="#8dd3c7" stroke="#000000" points="2793.4231,-258 2790.4231,-262 2769.4231,-262 2766.4231,-258 2694.5769,-258 2694.5769,-222 2793.4231,-222 2793.4231,-258"/>
<text text-anchor="middle" x="2744" y="-235.8" font-family="Times,serif" font-size="14.00" fill="#000000">SharedModule</text>
</g>
<!-- BaseModule&#45;&gt;SharedModule -->
<g id="edge33" class="edge">
<title>BaseModule&#45;&gt;SharedModule</title>
<path fill="none" stroke="#000000" d="M3030.5189,-172C2940.9096,-172 2744,-172 2744,-172 2744,-172 2744,-211.7772 2744,-211.7772"/>
<polygon fill="#000000" stroke="#000000" points="2740.5001,-211.7772 2744,-221.7772 2747.5001,-211.7773 2740.5001,-211.7772"/>
</g>
<!-- ChatComponent -->
<g id="node15" class="node">
<title>ChatComponent</title>
<polygon fill="#ffffb3" stroke="#000000" points="131.7744,-190 24.2256,-190 24.2256,-154 131.7744,-154 131.7744,-190"/>
<text text-anchor="middle" x="78" y="-167.8" font-family="Times,serif" font-size="14.00" fill="#000000">ChatComponent</text>
</g>
<!-- ChatModule -->
<g id="node20" class="node">
<title>ChatModule</title>
<polygon fill="#8dd3c7" stroke="#000000" points="526.9916,-258 523.9916,-262 502.9916,-262 499.9916,-258 441.0084,-258 441.0084,-222 526.9916,-222 526.9916,-258"/>
<text text-anchor="middle" x="484" y="-235.8" font-family="Times,serif" font-size="14.00" fill="#000000">ChatModule</text>
</g>
<!-- ChatComponent&#45;&gt;ChatModule -->
<g id="edge13" class="edge">
<title>ChatComponent&#45;&gt;ChatModule</title>
<path fill="none" stroke="#000000" d="M78,-190.2921C78,-212.2057 78,-246 78,-246 78,-246 430.9353,-246 430.9353,-246"/>
<polygon fill="#000000" stroke="#000000" points="430.9353,-249.5001 440.9353,-246 430.9352,-242.5001 430.9353,-249.5001"/>
</g>
<!-- ChatDiscutionComponent -->
<g id="node16" class="node">
<title>ChatDiscutionComponent</title>
<polygon fill="#ffffb3" stroke="#000000" points="868.2119,-190 705.7881,-190 705.7881,-154 868.2119,-154 868.2119,-190"/>
<text text-anchor="middle" x="787" y="-167.8" font-family="Times,serif" font-size="14.00" fill="#000000">ChatDiscutionComponent</text>
</g>
<!-- ChatDiscutionComponent&#45;&gt;ChatModule -->
<g id="edge14" class="edge">
<title>ChatDiscutionComponent&#45;&gt;ChatModule</title>
<path fill="none" stroke="#000000" d="M787,-190.0336C787,-207.0597 787,-230 787,-230 787,-230 537.0907,-230 537.0907,-230"/>
<polygon fill="#000000" stroke="#000000" points="537.0908,-226.5001 527.0907,-230 537.0907,-233.5001 537.0908,-226.5001"/>
</g>
<!-- ChatDiscutionMessageComponent -->
<g id="node17" class="node">
<title>ChatDiscutionMessageComponent</title>
<polygon fill="#ffffb3" stroke="#000000" points="687.6895,-190 476.3105,-190 476.3105,-154 687.6895,-154 687.6895,-190"/>
<text text-anchor="middle" x="582" y="-167.8" font-family="Times,serif" font-size="14.00" fill="#000000">ChatDiscutionMessageComponent</text>
</g>
<!-- ChatDiscutionMessageComponent&#45;&gt;ChatModule -->
<g id="edge15" class="edge">
<title>ChatDiscutionMessageComponent&#45;&gt;ChatModule</title>
<path fill="none" stroke="#000000" d="M501.7006,-190.2228C501.7006,-190.2228 501.7006,-211.7269 501.7006,-211.7269"/>
<polygon fill="#000000" stroke="#000000" points="498.2006,-211.7269 501.7006,-221.7269 505.2006,-211.727 498.2006,-211.7269"/>
</g>
<!-- ChatEditorComponent -->
<g id="node18" class="node">
<title>ChatEditorComponent</title>
<polygon fill="#ffffb3" stroke="#000000" points="458.2688,-190 315.7312,-190 315.7312,-154 458.2688,-154 458.2688,-190"/>
<text text-anchor="middle" x="387" y="-167.8" font-family="Times,serif" font-size="14.00" fill="#000000">ChatEditorComponent</text>
</g>
<!-- ChatEditorComponent&#45;&gt;ChatModule -->
<g id="edge16" class="edge">
<title>ChatEditorComponent&#45;&gt;ChatModule</title>
<path fill="none" stroke="#000000" d="M449.6943,-190.2228C449.6943,-190.2228 449.6943,-211.7269 449.6943,-211.7269"/>
<polygon fill="#000000" stroke="#000000" points="446.1943,-211.7269 449.6943,-221.7269 453.1943,-211.727 446.1943,-211.7269"/>
</g>
<!-- ChatHeaderComponent -->
<g id="node19" class="node">
<title>ChatHeaderComponent</title>
<polygon fill="#ffffb3" stroke="#000000" points="298.1853,-190 149.8147,-190 149.8147,-154 298.1853,-154 298.1853,-190"/>
<text text-anchor="middle" x="224" y="-167.8" font-family="Times,serif" font-size="14.00" fill="#000000">ChatHeaderComponent</text>
</g>
<!-- ChatHeaderComponent&#45;&gt;ChatModule -->
<g id="edge17" class="edge">
<title>ChatHeaderComponent&#45;&gt;ChatModule</title>
<path fill="none" stroke="#000000" d="M224,-190.2667C224,-208.5552 224,-234 224,-234 224,-234 430.7744,-234 430.7744,-234"/>
<polygon fill="#000000" stroke="#000000" points="430.7745,-237.5001 440.7744,-234 430.7744,-230.5001 430.7745,-237.5001"/>
</g>
<!-- ChatModule&#45;&gt;ScreensModule -->
<g id="edge28" class="edge">
<title>ChatModule&#45;&gt;ScreensModule</title>
<path fill="none" stroke="#000000" d="M498.3319,-258.0579C498.3319,-262.4945 498.3319,-266 498.3319,-266 498.3319,-266 2221.6395,-266 2221.6395,-266 2221.6395,-266 2221.6395,-287.9489 2221.6395,-287.9489"/>
<polygon fill="#000000" stroke="#000000" points="2218.1396,-287.9488 2221.6395,-297.9489 2225.1396,-287.9489 2218.1396,-287.9488"/>
</g>
<!-- ChatComponent  -->
<g id="node21" class="node">
<title>ChatComponent </title>
<polygon fill="#fb8072" stroke="#000000" points="539.7745,-334 428.2255,-334 428.2255,-298 539.7745,-298 539.7745,-334"/>
<text text-anchor="middle" x="484" y="-311.8" font-family="Times,serif" font-size="14.00" fill="#000000">ChatComponent </text>
</g>
<!-- ChatModule&#45;&gt;ChatComponent  -->
<g id="edge18" class="edge">
<title>ChatModule&#45;&gt;ChatComponent </title>
<path fill="none" stroke="#000000" stroke-dasharray="5,2" d="M469.6681,-258.0109C469.6681,-258.0109 469.6681,-287.855 469.6681,-287.855"/>
<polygon fill="#000000" stroke="#000000" points="466.1682,-287.8549 469.6681,-297.855 473.1682,-287.855 466.1682,-287.8549"/>
</g>
<!-- ContactsComponent -->
<g id="node22" class="node">
<title>ContactsComponent</title>
<polygon fill="#ffffb3" stroke="#000000" points="1967.3244,-190 1836.6756,-190 1836.6756,-154 1967.3244,-154 1967.3244,-190"/>
<text text-anchor="middle" x="1902" y="-167.8" font-family="Times,serif" font-size="14.00" fill="#000000">ContactsComponent</text>
</g>
<!-- ContactsModule -->
<g id="node28" class="node">
<title>ContactsModule</title>
<polygon fill="#8dd3c7" stroke="#000000" points="1608.0424,-258 1605.0424,-262 1584.0424,-262 1581.0424,-258 1499.9576,-258 1499.9576,-222 1608.0424,-222 1608.0424,-258"/>
<text text-anchor="middle" x="1554" y="-235.8" font-family="Times,serif" font-size="14.00" fill="#000000">ContactsModule</text>
</g>
<!-- ContactsComponent&#45;&gt;ContactsModule -->
<g id="edge19" class="edge">
<title>ContactsComponent&#45;&gt;ContactsModule</title>
<path fill="none" stroke="#000000" d="M1902,-190.2228C1902,-210.3652 1902,-240 1902,-240 1902,-240 1618.375,-240 1618.375,-240"/>
<polygon fill="#000000" stroke="#000000" points="1618.375,-236.5001 1608.375,-240 1618.375,-243.5001 1618.375,-236.5001"/>
</g>
<!-- ContactsHeaderComponent -->
<g id="node23" class="node">
<title>ContactsHeaderComponent</title>
<polygon fill="#ffffb3" stroke="#000000" points="1818.2352,-190 1647.7648,-190 1647.7648,-154 1818.2352,-154 1818.2352,-190"/>
<text text-anchor="middle" x="1733" y="-167.8" font-family="Times,serif" font-size="14.00" fill="#000000">ContactsHeaderComponent</text>
</g>
<!-- ContactsHeaderComponent&#45;&gt;ContactsModule -->
<g id="edge20" class="edge">
<title>ContactsHeaderComponent&#45;&gt;ContactsModule</title>
<path fill="none" stroke="#000000" d="M1733,-190.0225C1733,-207.3734 1733,-231 1733,-231 1733,-231 1618.1917,-231 1618.1917,-231"/>
<polygon fill="#000000" stroke="#000000" points="1618.1917,-227.5001 1608.1917,-231 1618.1916,-234.5001 1618.1917,-227.5001"/>
</g>
<!-- ContactsListComponent -->
<g id="node24" class="node">
<title>ContactsListComponent</title>
<polygon fill="#ffffb3" stroke="#000000" points="1630.1024,-190 1477.8976,-190 1477.8976,-154 1630.1024,-154 1630.1024,-190"/>
<text text-anchor="middle" x="1554" y="-167.8" font-family="Times,serif" font-size="14.00" fill="#000000">ContactsListComponent</text>
</g>
<!-- ContactsListComponent&#45;&gt;ContactsModule -->
<g id="edge21" class="edge">
<title>ContactsListComponent&#45;&gt;ContactsModule</title>
<path fill="none" stroke="#000000" d="M1554,-190.2228C1554,-190.2228 1554,-211.7269 1554,-211.7269"/>
<polygon fill="#000000" stroke="#000000" points="1550.5001,-211.7269 1554,-221.7269 1557.5001,-211.727 1550.5001,-211.7269"/>
</g>
<!-- ContactsListItemComponent -->
<g id="node25" class="node">
<title>ContactsListItemComponent</title>
<polygon fill="#ffffb3" stroke="#000000" points="1459.759,-190 1282.241,-190 1282.241,-154 1459.759,-154 1459.759,-190"/>
<text text-anchor="middle" x="1371" y="-167.8" font-family="Times,serif" font-size="14.00" fill="#000000">ContactsListItemComponent</text>
</g>
<!-- ContactsListItemComponent&#45;&gt;ContactsModule -->
<g id="edge22" class="edge">
<title>ContactsListItemComponent&#45;&gt;ContactsModule</title>
<path fill="none" stroke="#000000" d="M1371,-190.1061C1371,-209.3391 1371,-237 1371,-237 1371,-237 1489.5894,-237 1489.5894,-237"/>
<polygon fill="#000000" stroke="#000000" points="1489.5895,-240.5001 1499.5894,-237 1489.5894,-233.5001 1489.5895,-240.5001"/>
</g>
<!-- ContactsSearchComponent -->
<g id="node26" class="node">
<title>ContactsSearchComponent</title>
<polygon fill="#ffffb3" stroke="#000000" points="1264.4115,-190 1095.5885,-190 1095.5885,-154 1264.4115,-154 1264.4115,-190"/>
<text text-anchor="middle" x="1180" y="-167.8" font-family="Times,serif" font-size="14.00" fill="#000000">ContactsSearchComponent</text>
</g>
<!-- ContactsSearchComponent&#45;&gt;ContactsModule -->
<g id="edge23" class="edge">
<title>ContactsSearchComponent&#45;&gt;ContactsModule</title>
<path fill="none" stroke="#000000" d="M1180,-190.1686C1180,-211.498 1180,-244 1180,-244 1180,-244 1489.6172,-244 1489.6172,-244"/>
<polygon fill="#000000" stroke="#000000" points="1489.6172,-247.5001 1499.6172,-244 1489.6172,-240.5001 1489.6172,-247.5001"/>
</g>
<!-- ContactsSettingComponent -->
<g id="node27" class="node">
<title>ContactsSettingComponent</title>
<polygon fill="#ffffb3" stroke="#000000" points="1077.993,-190 908.007,-190 908.007,-154 1077.993,-154 1077.993,-190"/>
<text text-anchor="middle" x="993" y="-167.8" font-family="Times,serif" font-size="14.00" fill="#000000">ContactsSettingComponent</text>
</g>
<!-- ContactsSettingComponent&#45;&gt;ContactsModule -->
<g id="edge24" class="edge">
<title>ContactsSettingComponent&#45;&gt;ContactsModule</title>
<path fill="none" stroke="#000000" d="M993,-190.3228C993,-213.6602 993,-251 993,-251 993,-251 1489.9543,-251 1489.9543,-251"/>
<polygon fill="#000000" stroke="#000000" points="1489.9544,-254.5001 1499.9543,-251 1489.9543,-247.5001 1489.9544,-254.5001"/>
</g>
<!-- ContactsModule&#45;&gt;ScreensModule -->
<g id="edge29" class="edge">
<title>ContactsModule&#45;&gt;ScreensModule</title>
<path fill="none" stroke="#000000" d="M1608.1779,-249C1618.1476,-249 1625.4816,-249 1625.4816,-249 1625.4816,-249 1625.4816,-322 1625.4816,-322 1625.4816,-322 2194.402,-322 2194.402,-322"/>
<polygon fill="#000000" stroke="#000000" points="2194.4021,-325.5001 2204.402,-322 2194.402,-318.5001 2194.4021,-325.5001"/>
</g>
<!-- ContactsComponent  -->
<g id="node29" class="node">
<title>ContactsComponent </title>
<polygon fill="#fb8072" stroke="#000000" points="1620.8241,-334 1487.1759,-334 1487.1759,-298 1620.8241,-298 1620.8241,-334"/>
<text text-anchor="middle" x="1554" y="-311.8" font-family="Times,serif" font-size="14.00" fill="#000000">ContactsComponent </text>
</g>
<!-- ContactsModule&#45;&gt;ContactsComponent  -->
<g id="edge25" class="edge">
<title>ContactsModule&#45;&gt;ContactsComponent </title>
<path fill="none" stroke="#000000" stroke-dasharray="5,2" d="M1554,-258.0109C1554,-258.0109 1554,-287.855 1554,-287.855"/>
<polygon fill="#000000" stroke="#000000" points="1550.5001,-287.8549 1554,-297.855 1557.5001,-287.855 1550.5001,-287.8549"/>
</g>
<!-- ScreenChatComponent -->
<g id="node30" class="node">
<title>ScreenChatComponent</title>
<polygon fill="#ffffb3" stroke="#000000" points="2670.8613,-258 2525.1387,-258 2525.1387,-222 2670.8613,-222 2670.8613,-258"/>
<text text-anchor="middle" x="2598" y="-235.8" font-family="Times,serif" font-size="14.00" fill="#000000">ScreenChatComponent</text>
</g>
<!-- ScreenChatComponent&#45;&gt;ScreensModule -->
<g id="edge26" class="edge">
<title>ScreenChatComponent&#45;&gt;ScreensModule</title>
<path fill="none" stroke="#000000" d="M2554.3944,-258.0555C2554.3944,-269.439 2554.3944,-282 2554.3944,-282 2554.3944,-282 2273.1802,-282 2273.1802,-282 2273.1802,-282 2273.1802,-287.8056 2273.1802,-287.8056"/>
<polygon fill="#000000" stroke="#000000" points="2269.6803,-287.8055 2273.1802,-297.8056 2276.6803,-287.8056 2269.6803,-287.8055"/>
</g>
<!-- ScreenLoginComponent -->
<g id="node31" class="node">
<title>ScreenLoginComponent</title>
<polygon fill="#ffffb3" stroke="#000000" points="2507.3627,-258 2354.6373,-258 2354.6373,-222 2507.3627,-222 2507.3627,-258"/>
<text text-anchor="middle" x="2431" y="-235.8" font-family="Times,serif" font-size="14.00" fill="#000000">ScreenLoginComponent</text>
</g>
<!-- ScreenLoginComponent&#45;&gt;ScreensModule -->
<g id="edge27" class="edge">
<title>ScreenLoginComponent&#45;&gt;ScreensModule</title>
<path fill="none" stroke="#000000" d="M2404.4779,-258.1944C2404.4779,-266.2782 2404.4779,-274 2404.4779,-274 2404.4779,-274 2256,-274 2256,-274 2256,-274 2256,-287.9445 2256,-287.9445"/>
<polygon fill="#000000" stroke="#000000" points="2252.5001,-287.9444 2256,-297.9445 2259.5001,-287.9445 2252.5001,-287.9444"/>
</g>
<!-- SharedModule&#45;&gt;ScreensModule -->
<g id="edge30" class="edge">
<title>SharedModule&#45;&gt;ScreensModule</title>
<path fill="none" stroke="#000000" d="M2728.9566,-258.0511C2728.9566,-272.373 2728.9566,-290 2728.9566,-290 2728.9566,-290 2290.3605,-290 2290.3605,-290 2290.3605,-290 2290.3605,-290.7942 2290.3605,-290.7942"/>
<polygon fill="#000000" stroke="#000000" points="2286.8606,-287.9421 2290.3605,-297.9421 2293.8606,-287.9422 2286.8606,-287.9421"/>
</g>
<!-- BaseModule  -->
<g id="node35" class="node">
<title>BaseModule </title>
<polygon fill="#fb8072" stroke="#000000" points="2789.2606,-334 2698.7394,-334 2698.7394,-298 2789.2606,-298 2789.2606,-334"/>
<text text-anchor="middle" x="2744" y="-311.8" font-family="Times,serif" font-size="14.00" fill="#000000">BaseModule </text>
</g>
<!-- SharedModule&#45;&gt;BaseModule  -->
<g id="edge34" class="edge">
<title>SharedModule&#45;&gt;BaseModule </title>
<path fill="none" stroke="#000000" stroke-dasharray="5,2" d="M2759.0434,-258.0109C2759.0434,-258.0109 2759.0434,-287.855 2759.0434,-287.855"/>
<polygon fill="#000000" stroke="#000000" points="2755.5435,-287.8549 2759.0434,-297.855 2762.5435,-287.855 2755.5435,-287.8549"/>
</g>
</g>
</svg>
