<?xml version="1.0" encoding="UTF-8" standalone="no"?>
<!DOCTYPE svg PUBLIC "-//W3C//DTD SVG 1.1//EN"
 "http://www.w3.org/Graphics/SVG/1.1/DTD/svg11.dtd">
<!-- Generated by graphviz version 2.40.1 (20161225.0304)
 -->
<!-- Title: dependencies Pages: 1 -->
<svg width="900pt" height="284pt"
 viewBox="0.00 0.00 900.00 284.00" xmlns="http://www.w3.org/2000/svg" xmlns:xlink="http://www.w3.org/1999/xlink">
<g id="graph0" class="graph" transform="scale(1 1) rotate(0) translate(4 280)">
<title>dependencies</title>
<polygon fill="#ffffff" stroke="transparent" points="-4,4 -4,-280 896,-280 896,4 -4,4"/>
<text text-anchor="start" x="425.0091" y="-42.4" font-family="sans-serif" font-weight="bold" font-size="14.00" fill="#000000">Legend</text>
<polygon fill="#ffffb3" stroke="transparent" points="212,-10 212,-30 232,-30 232,-10 212,-10"/>
<text text-anchor="start" x="235.629" y="-15.4" font-family="sans-serif" font-size="14.00" fill="#000000"> &#160;Declarations</text>
<polygon fill="#8dd3c7" stroke="transparent" points="325,-10 325,-30 345,-30 345,-10 325,-10"/>
<text text-anchor="start" x="348.7251" y="-15.4" font-family="sans-serif" font-size="14.00" fill="#000000"> &#160;Module</text>
<polygon fill="#80b1d3" stroke="transparent" points="411,-10 411,-30 431,-30 431,-10 411,-10"/>
<text text-anchor="start" x="434.7812" y="-15.4" font-family="sans-serif" font-size="14.00" fill="#000000"> &#160;Bootstrap</text>
<polygon fill="#fdb462" stroke="transparent" points="508,-10 508,-30 528,-30 528,-10 508,-10"/>
<text text-anchor="start" x="531.6732" y="-15.4" font-family="sans-serif" font-size="14.00" fill="#000000"> &#160;Providers</text>
<polygon fill="#fb8072" stroke="transparent" points="604,-10 604,-30 624,-30 624,-10 604,-10"/>
<text text-anchor="start" x="627.7258" y="-15.4" font-family="sans-serif" font-size="14.00" fill="#000000"> &#160;Exports</text>
<g id="clust1" class="cluster">
<title>cluster_ChatModule</title>
<polygon fill="none" stroke="#000000" stroke-dasharray="1,5" points="8,-70 8,-268 884,-268 884,-70 8,-70"/>
</g>
<g id="clust2" class="cluster">
<title>cluster_ChatModule_declarations</title>
<polygon fill="none" stroke="#000000" points="16,-78 16,-130 876,-130 876,-78 16,-78"/>
</g>
<g id="clust9" class="cluster">
<title>cluster_ChatModule_exports</title>
<polygon fill="none" stroke="#000000" points="392,-208 392,-260 520,-260 520,-208 392,-208"/>
</g>
<!-- ChatComponent -->
<g id="node1" class="node">
<title>ChatComponent</title>
<polygon fill="#ffffb3" stroke="#000000" points="867.7744,-122 760.2256,-122 760.2256,-86 867.7744,-86 867.7744,-122"/>
<text text-anchor="middle" x="814" y="-99.8" font-family="Times,serif" font-size="14.00" fill="#000000">ChatComponent</text>
</g>
<!-- ChatModule -->
<g id="node6" class="node">
<title>ChatModule</title>
<polygon fill="#8dd3c7" stroke="#000000" points="498.9916,-187 495.9916,-191 474.9916,-191 471.9916,-187 413.0084,-187 413.0084,-151 498.9916,-151 498.9916,-187"/>
<text text-anchor="middle" x="456" y="-164.8" font-family="Times,serif" font-size="14.00" fill="#000000">ChatModule</text>
</g>
<!-- ChatComponent&#45;&gt;ChatModule -->
<g id="edge1" class="edge">
<title>ChatComponent&#45;&gt;ChatModule</title>
<path fill="none" stroke="#000000" d="M814,-122.2843C814,-143.3211 814,-175 814,-175 814,-175 509.1832,-175 509.1832,-175"/>
<polygon fill="#000000" stroke="#000000" points="509.1832,-171.5001 499.1832,-175 509.1831,-178.5001 509.1832,-171.5001"/>
</g>
<!-- ChatDiscutionComponent -->
<g id="node2" class="node">
<title>ChatDiscutionComponent</title>
<polygon fill="#ffffb3" stroke="#000000" points="742.2119,-122 579.7881,-122 579.7881,-86 742.2119,-86 742.2119,-122"/>
<text text-anchor="middle" x="661" y="-99.8" font-family="Times,serif" font-size="14.00" fill="#000000">ChatDiscutionComponent</text>
</g>
<!-- ChatDiscutionComponent&#45;&gt;ChatModule -->
<g id="edge2" class="edge">
<title>ChatDiscutionComponent&#45;&gt;ChatModule</title>
<path fill="none" stroke="#000000" d="M661,-122.0225C661,-139.3734 661,-163 661,-163 661,-163 509.4752,-163 509.4752,-163"/>
<polygon fill="#000000" stroke="#000000" points="509.4753,-159.5001 499.4752,-163 509.4752,-166.5001 509.4753,-159.5001"/>
</g>
<!-- ChatDiscutionMessageComponent -->
<g id="node3" class="node">
<title>ChatDiscutionMessageComponent</title>
<polygon fill="#ffffb3" stroke="#000000" points="561.6895,-122 350.3105,-122 350.3105,-86 561.6895,-86 561.6895,-122"/>
<text text-anchor="middle" x="456" y="-99.8" font-family="Times,serif" font-size="14.00" fill="#000000">ChatDiscutionMessageComponent</text>
</g>
<!-- ChatDiscutionMessageComponent&#45;&gt;ChatModule -->
<g id="edge3" class="edge">
<title>ChatDiscutionMessageComponent&#45;&gt;ChatModule</title>
<path fill="none" stroke="#000000" d="M456,-122.1061C456,-122.1061 456,-140.991 456,-140.991"/>
<polygon fill="#000000" stroke="#000000" points="452.5001,-140.9909 456,-150.991 459.5001,-140.991 452.5001,-140.9909"/>
</g>
<!-- ChatEditorComponent -->
<g id="node4" class="node">
<title>ChatEditorComponent</title>
<polygon fill="#ffffb3" stroke="#000000" points="332.2688,-122 189.7312,-122 189.7312,-86 332.2688,-86 332.2688,-122"/>
<text text-anchor="middle" x="261" y="-99.8" font-family="Times,serif" font-size="14.00" fill="#000000">ChatEditorComponent</text>
</g>
<!-- ChatEditorComponent&#45;&gt;ChatModule -->
<g id="edge4" class="edge">
<title>ChatEditorComponent&#45;&gt;ChatModule</title>
<path fill="none" stroke="#000000" d="M261,-122.0225C261,-139.3734 261,-163 261,-163 261,-163 402.7232,-163 402.7232,-163"/>
<polygon fill="#000000" stroke="#000000" points="402.7232,-166.5001 412.7232,-163 402.7231,-159.5001 402.7232,-166.5001"/>
</g>
<!-- ChatHeaderComponent -->
<g id="node5" class="node">
<title>ChatHeaderComponent</title>
<polygon fill="#ffffb3" stroke="#000000" points="172.1853,-122 23.8147,-122 23.8147,-86 172.1853,-86 172.1853,-122"/>
<text text-anchor="middle" x="98" y="-99.8" font-family="Times,serif" font-size="14.00" fill="#000000">ChatHeaderComponent</text>
</g>
<!-- ChatHeaderComponent&#45;&gt;ChatModule -->
<g id="edge5" class="edge">
<title>ChatHeaderComponent&#45;&gt;ChatModule</title>
<path fill="none" stroke="#000000" d="M98,-122.2843C98,-143.3211 98,-175 98,-175 98,-175 402.8168,-175 402.8168,-175"/>
<polygon fill="#000000" stroke="#000000" points="402.8169,-178.5001 412.8168,-175 402.8168,-171.5001 402.8169,-178.5001"/>
</g>
<!-- ChatComponent  -->
<g id="node7" class="node">
<title>ChatComponent </title>
<polygon fill="#fb8072" stroke="#000000" points="511.7745,-252 400.2255,-252 400.2255,-216 511.7745,-216 511.7745,-252"/>
<text text-anchor="middle" x="456" y="-229.8" font-family="Times,serif" font-size="14.00" fill="#000000">ChatComponent </text>
</g>
<!-- ChatModule&#45;&gt;ChatComponent  -->
<g id="edge6" class="edge">
<title>ChatModule&#45;&gt;ChatComponent </title>
<path fill="none" stroke="#000000" stroke-dasharray="5,2" d="M456,-187.1061C456,-187.1061 456,-205.991 456,-205.991"/>
<polygon fill="#000000" stroke="#000000" points="452.5001,-205.9909 456,-215.991 459.5001,-205.991 452.5001,-205.9909"/>
</g>
</g>
</svg>
